<svg width="50" height="50" viewBox="0 0 50 50" fill="none" xmlns="http://www.w3.org/2000/svg">
<path d="M24.9999 17.3959L22.8124 19.5834L26.6666 23.4375L17.1874 23.4375L17.1874 26.5625L26.6666 26.5625L22.8124 30.4167L24.9999 32.6042L32.6041 25L24.9999 17.3959ZM24.9999 4.1667C27.8471 4.1667 30.5381 4.71358 33.0728 5.80733C35.6076 6.90108 37.8211 8.39414 39.7135 10.2865C41.6058 12.1789 43.0989 14.3924 44.1926 16.9271C45.2864 19.4618 45.8332 22.1528 45.8333 25C45.8333 27.882 45.2864 30.5903 44.1926 33.125C43.0989 35.6598 41.6058 37.8646 39.7135 39.7396C37.8211 41.6146 35.6076 43.099 33.0728 44.1928C30.5381 45.2865 27.8471 45.8334 24.9999 45.8334C22.118 45.8334 19.4096 45.2865 16.8749 44.1928C14.3402 43.099 12.1353 41.6146 10.2603 39.7396C8.38533 37.8646 6.90096 35.6598 5.80721 33.125C4.71346 30.5903 4.16658 27.882 4.16658 25C4.16658 22.1528 4.71346 19.4618 5.80721 16.9271C6.90096 14.3924 8.38533 12.1789 10.2603 10.2865C12.1353 8.39414 14.3402 6.90108 16.8749 5.80733C19.4096 4.71358 22.118 4.1667 24.9999 4.1667ZM24.9999 7.29171C20.0694 7.29171 15.8853 9.01914 12.4478 12.474C9.01033 15.9289 7.29158 20.1042 7.29158 25C7.29158 29.9306 9.01033 34.1146 12.4478 37.5521C15.8853 40.9896 20.0694 42.7084 24.9999 42.7084C29.8958 42.7084 34.0711 40.9896 37.526 37.5521C40.9808 34.1146 42.7083 29.9306 42.7082 25C42.7082 20.1042 40.9808 15.9289 37.526 12.474C34.0711 9.01914 29.8957 7.29171 24.9999 7.29171Z" fill="#858181"/>
</svg>
