<svg width="50" height="50" viewBox="0 0 50 50" fill="none" xmlns="http://www.w3.org/2000/svg">
<path d="M25 32.6041L27.1875 30.4166L23.3333 26.5625H32.8125V23.4375H23.3333L27.1875 19.5833L25 17.3958L17.3958 25L25 32.6041ZM25 45.8333C22.1527 45.8333 19.4618 45.2864 16.927 44.1927C14.3923 43.0989 12.1788 41.6059 10.2864 39.7135C8.39406 37.8211 6.901 35.6076 5.80725 33.0729C4.7135 30.5382 4.16663 27.8472 4.16663 25C4.16663 22.118 4.7135 19.4097 5.80725 16.875C6.901 14.3402 8.39406 12.1354 10.2864 10.2604C12.1788 8.38538 14.3923 6.901 16.927 5.80725C19.4618 4.7135 22.1527 4.16663 25 4.16663C27.8819 4.16663 30.5902 4.7135 33.125 5.80725C35.6597 6.901 37.8645 8.38538 39.7395 10.2604C41.6145 12.1354 43.0989 14.3402 44.1927 16.875C45.2864 19.4097 45.8333 22.118 45.8333 25C45.8333 27.8472 45.2864 30.5382 44.1927 33.0729C43.0989 35.6076 41.6145 37.8211 39.7395 39.7135C37.8645 41.6059 35.6597 43.0989 33.125 44.1927C30.5902 45.2864 27.8819 45.8333 25 45.8333ZM25 42.7083C29.9305 42.7083 34.1145 40.9809 37.552 37.526C40.9895 34.0711 42.7083 29.8958 42.7083 25C42.7083 20.0694 40.9895 15.8854 37.552 12.4479C34.1145 9.01038 29.9305 7.29163 25 7.29163C20.1041 7.29163 15.9288 9.01038 12.4739 12.4479C9.01906 15.8854 7.29163 20.0694 7.29163 25C7.29163 29.8958 9.01906 34.0711 12.4739 37.526C15.9288 40.9809 20.1041 42.7083 25 42.7083Z" fill="#858181"/>
</svg>
