<svg width="40" height="40" viewBox="0 0 40 40" fill="none" xmlns="http://www.w3.org/2000/svg">
<path d="M22.9583 35.625C22.4583 36.125 21.8542 36.375 21.1458 36.375C20.4375 36.375 19.8333 36.125 19.3333 35.625L3.70833 20C3.43056 19.7222 3.24306 19.4306 3.14583 19.125C3.04861 18.8194 3 18.5 3 18.1667V5.5C3 4.77778 3.23611 4.18056 3.70833 3.70833C4.18056 3.23611 4.77778 3 5.5 3H18.1667C18.5 3 18.8333 3.04861 19.1667 3.14583C19.5 3.24306 19.8056 3.43056 20.0833 3.70833L35.625 19.25C36.1528 19.7778 36.4167 20.3958 36.4167 21.1042C36.4167 21.8125 36.1528 22.4306 35.625 22.9583L22.9583 35.625ZM21.25 33.9167L33.9167 21.25L18.1667 5.5H5.5V18.1667L21.25 33.9167ZM9.875 12C10.4583 12 10.9653 11.7847 11.3958 11.3542C11.8264 10.9236 12.0417 10.4167 12.0417 9.83333C12.0417 9.25 11.8264 8.74306 11.3958 8.3125C10.9653 7.88194 10.4583 7.66667 9.875 7.66667C9.29167 7.66667 8.78472 7.88194 8.35417 8.3125C7.92361 8.74306 7.70833 9.25 7.70833 9.83333C7.70833 10.4167 7.92361 10.9236 8.35417 11.3542C8.78472 11.7847 9.29167 12 9.875 12Z" fill="#E23D3D"/>
</svg>
