<svg width="40" height="40" viewBox="0 0 40 40" fill="none" xmlns="http://www.w3.org/2000/svg">
<path d="M14.4167 37.5L11.2501 32.0833L4.95841 30.7917L5.66675 24.6667L1.66675 20L5.66675 15.375L4.95841 9.25L11.2501 7.95833L14.4167 2.5L20.0001 5.08333L25.5834 2.5L28.7917 7.95833L35.0417 9.25L34.3334 15.375L38.3334 20L34.3334 24.6667L35.0417 30.7917L28.7917 32.0833L25.5834 37.5L20.0001 34.9167L14.4167 37.5ZM15.5417 34.2083L20.0001 32.3333L24.5834 34.2083L27.3751 30.0417L32.2501 28.7917L31.7501 23.8333L35.1251 20L31.7501 16.0833L32.2501 11.125L27.3751 9.95833L24.5001 5.79167L20.0001 7.66667L15.4167 5.79167L12.6251 9.95833L7.75008 11.125L8.25008 16.0833L4.87508 20L8.25008 23.8333L7.75008 28.875L12.6251 30.0417L15.5417 34.2083ZM18.2084 25.5417L27.6667 16.1667L25.7917 14.4583L18.2084 21.9583L14.2501 17.8333L12.3334 19.7083L18.2084 25.5417Z" fill="#E23D3D"/>
</svg>
