<svg width="40" height="40" viewBox="0 0 40 40" fill="none" xmlns="http://www.w3.org/2000/svg">
<path d="M10.5833 25V23.125H6V20.625H15.1667V16.25H7.29167C6.95833 16.25 6.65972 16.125 6.39583 15.875C6.13194 15.625 6 15.3194 6 14.9583V8.125C6 7.76389 6.125 7.46528 6.375 7.22917C6.625 6.99306 6.91667 6.875 7.25 6.875H10.5833V5H13.0833V6.875H17.6667V9.375H8.5V13.75H16.375C16.7361 13.75 17.0417 13.8681 17.2917 14.1042C17.5417 14.3403 17.6667 14.6528 17.6667 15.0417V21.875C17.6667 22.2083 17.5486 22.5 17.3125 22.75C17.0764 23 16.7778 23.125 16.4167 23.125H13.0833V25H10.5833ZM22.5833 35L15.5 27.9167L17.25 26.1667L22.5833 31.5L32.5833 21.5L34.3333 23.25L22.5833 35Z" fill="#E23D3D"/>
</svg>
