<svg width="40" height="40" viewBox="0 0 40 40" fill="none" xmlns="http://www.w3.org/2000/svg">
<path d="M22.8333 22.8333C21.4444 22.8333 20.2639 22.3472 19.2917 21.375C18.3194 20.4028 17.8333 19.2222 17.8333 17.8333C17.8333 16.4444 18.3194 15.2639 19.2917 14.2917C20.2639 13.3194 21.4444 12.8333 22.8333 12.8333C24.2222 12.8333 25.4028 13.3194 26.375 14.2917C27.3472 15.2639 27.8333 16.4444 27.8333 17.8333C27.8333 19.2222 27.3472 20.4028 26.375 21.375C25.4028 22.3472 24.2222 22.8333 22.8333 22.8333ZM9.5 28.6667C8.80556 28.6667 8.21528 28.4236 7.72917 27.9375C7.24306 27.4514 7 26.8611 7 26.1667V9.5C7 8.80556 7.24306 8.21528 7.72917 7.72917C8.21528 7.24306 8.80556 7 9.5 7H36.1667C36.8611 7 37.4514 7.24306 37.9375 7.72917C38.4236 8.21528 38.6667 8.80556 38.6667 9.5V26.1667C38.6667 26.8611 38.4236 27.4514 37.9375 27.9375C37.4514 28.4236 36.8611 28.6667 36.1667 28.6667H9.5ZM13.6667 26.1667H32C32 25 32.4028 24.0139 33.2083 23.2083C34.0139 22.4028 35 22 36.1667 22V13.6667C35 13.6667 34.0139 13.2639 33.2083 12.4583C32.4028 11.6528 32 10.6667 32 9.5H13.6667C13.6667 10.6667 13.2639 11.6528 12.4583 12.4583C11.6528 13.2639 10.6667 13.6667 9.5 13.6667V22C10.6667 22 11.6528 22.4028 12.4583 23.2083C13.2639 24.0139 13.6667 25 13.6667 26.1667ZM33.6667 33.6667H4.5C3.80556 33.6667 3.21528 33.4236 2.72917 32.9375C2.24306 32.4514 2 31.8611 2 31.1667V12H4.5V31.1667H33.6667V33.6667ZM9.5 26.1667V9.5V26.1667Z" fill="#E23D3D"/>
</svg>
