<svg width="40" height="40" viewBox="0 0 40 40" fill="none" xmlns="http://www.w3.org/2000/svg">
<path d="M18 35V32.5H32.1667V19.8333C32.1667 18.2222 31.8194 16.6736 31.125 15.1875C30.4306 13.7014 29.5 12.3889 28.3333 11.25C27.1667 10.1111 25.8333 9.20139 24.3333 8.52083C22.8333 7.84028 21.2778 7.5 19.6667 7.5C18.0556 7.5 16.5 7.84028 15 8.52083C13.5 9.20139 12.1667 10.1111 11 11.25C9.83333 12.3889 8.90278 13.7014 8.20833 15.1875C7.51389 16.6736 7.16667 18.2222 7.16667 19.8333V30H6.33333C5.41667 30 4.63194 29.6736 3.97917 29.0208C3.32639 28.3681 3 27.5833 3 26.6667V23.3333C3 22.6944 3.15278 22.1319 3.45833 21.6458C3.76389 21.1597 4.16667 20.7639 4.66667 20.4583L4.79167 18.25C5.04167 16.2222 5.61806 14.3889 6.52083 12.75C7.42361 11.1111 8.54861 9.72222 9.89583 8.58333C11.2431 7.44444 12.7569 6.5625 14.4375 5.9375C16.1181 5.3125 17.8611 5 19.6667 5C21.5 5 23.2569 5.3125 24.9375 5.9375C26.6181 6.5625 28.125 7.45139 29.4583 8.60417C30.7917 9.75694 31.9097 11.1458 32.8125 12.7708C33.7153 14.3958 34.2917 16.2083 34.5417 18.2083L34.6667 20.375C35.1667 20.625 35.5694 20.9931 35.875 21.4792C36.1806 21.9653 36.3333 22.5 36.3333 23.0833V26.9167C36.3333 27.5278 36.1806 28.0694 35.875 28.5417C35.5694 29.0139 35.1667 29.375 34.6667 29.625V32.5C34.6667 33.1944 34.4236 33.7847 33.9375 34.2708C33.4514 34.7569 32.8611 35 32.1667 35H18ZM14.6667 22.9167C14.3333 22.9167 14.0417 22.7917 13.7917 22.5417C13.5417 22.2917 13.4167 21.9861 13.4167 21.625C13.4167 21.2917 13.5417 21.0069 13.7917 20.7708C14.0417 20.5347 14.3472 20.4167 14.7083 20.4167C15.0417 20.4167 15.3264 20.5347 15.5625 20.7708C15.7986 21.0069 15.9167 21.3056 15.9167 21.6667C15.9167 22 15.7986 22.2917 15.5625 22.5417C15.3264 22.7917 15.0278 22.9167 14.6667 22.9167ZM24.6667 22.9167C24.3333 22.9167 24.0417 22.7917 23.7917 22.5417C23.5417 22.2917 23.4167 21.9861 23.4167 21.625C23.4167 21.2917 23.5417 21.0069 23.7917 20.7708C24.0417 20.5347 24.3472 20.4167 24.7083 20.4167C25.0417 20.4167 25.3264 20.5347 25.5625 20.7708C25.7986 21.0069 25.9167 21.3056 25.9167 21.6667C25.9167 22 25.7986 22.2917 25.5625 22.5417C25.3264 22.7917 25.0278 22.9167 24.6667 22.9167ZM9.70833 20.75C9.59722 19.1111 9.82639 17.625 10.3958 16.2917C10.9653 14.9583 11.7292 13.8264 12.6875 12.8958C13.6458 11.9653 14.75 11.25 16 10.75C17.25 10.25 18.5 10 19.75 10C22.2778 10 24.4028 10.7986 26.125 12.3958C27.8472 13.9931 28.9028 15.9861 29.2917 18.375C26.6806 18.3472 24.3819 17.6458 22.3958 16.2708C20.4097 14.8958 18.875 13.1111 17.7917 10.9167C17.3472 13.1667 16.4097 15.1597 14.9792 16.8958C13.5486 18.6319 11.7917 19.9167 9.70833 20.75Z" fill="#E23D3D"/>
</svg>
