<svg width="24" height="24" viewBox="0 0 24 24" fill="none" xmlns="http://www.w3.org/2000/svg">
<path d="M17 7.75C16.6667 7.75 16.375 7.625 16.125 7.375C15.875 7.125 15.75 6.83333 15.75 6.5C15.75 6.26667 15.8625 5.95417 16.0875 5.5625C16.3125 5.17083 16.6167 4.775 17 4.375C17.3833 4.775 17.6875 5.17083 17.9125 5.5625C18.1375 5.95417 18.25 6.26667 18.25 6.5C18.25 6.83333 18.1292 7.125 17.8875 7.375C17.6458 7.625 17.35 7.75 17 7.75ZM19.75 14.75C19.1333 14.75 18.6042 14.5292 18.1625 14.0875C17.7208 13.6458 17.5 13.1167 17.5 12.5C17.5 11.9833 17.7292 11.3375 18.1875 10.5625C18.6458 9.7875 19.1667 9.05833 19.75 8.375C20.3167 9.05833 20.8333 9.7875 21.3 10.5625C21.7667 11.3375 22 11.9833 22 12.5C22 13.1167 21.7833 13.6458 21.35 14.0875C20.9167 14.5292 20.3833 14.75 19.75 14.75ZM9 17.75H10.5V15.75H12.5V14.25H10.5V12.25H9V14.25H7V15.75H9V17.75ZM5.5 22C5.1 22 4.75 21.85 4.45 21.55C4.15 21.25 4 20.9 4 20.5V11.75C4 10.3167 4.475 9.06667 5.425 8C6.375 6.93333 7.56667 6.28333 9 6.05V3.5H6.75V2H12.75C13.2333 2 13.6917 2.06667 14.125 2.2C14.5583 2.33333 14.9667 2.525 15.35 2.775L14.25 3.9C14.0167 3.76667 13.7792 3.66667 13.5375 3.6C13.2958 3.53333 13.0333 3.5 12.75 3.5H10.5V6.05C11.9333 6.28333 13.125 6.93333 14.075 8C15.025 9.06667 15.5 10.3167 15.5 11.75V20.5C15.5 20.9 15.35 21.25 15.05 21.55C14.75 21.85 14.4 22 14 22H5.5ZM5.5 20.5H14V11.75C14 10.5667 13.5875 9.5625 12.7625 8.7375C11.9375 7.9125 10.9417 7.5 9.775 7.5C8.59167 7.5 7.58333 7.9125 6.75 8.7375C5.91667 9.5625 5.5 10.5667 5.5 11.75V20.5ZM5.5 20.5H14H5.5Z" fill="#858181"/>
</svg>
