<svg width="25" height="24" viewBox="0 0 25 24" fill="none" xmlns="http://www.w3.org/2000/svg">
<path d="M12.5234 2.16218C15.7274 2.16218 16.1069 2.17418 17.3726 2.23189C18.1336 2.24121 18.8874 2.38094 19.6012 2.64502C20.1188 2.84463 20.5889 3.15042 20.9812 3.54269C21.3734 3.93496 21.6792 4.40502 21.8789 4.92262C22.143 5.63637 22.2827 6.39011 22.292 7.15109C22.3492 8.41674 22.3617 8.79615 22.3617 12C22.3617 15.2038 22.3497 15.5833 22.292 16.8489C22.2827 17.6099 22.143 18.3636 21.8789 19.0774C21.6792 19.595 21.3734 20.065 20.9812 20.4573C20.5889 20.8496 20.1188 21.1554 19.6012 21.355C18.8874 21.6191 18.1336 21.7588 17.3726 21.7681C16.1074 21.8252 15.728 21.8378 12.5234 21.8378C9.31887 21.8378 8.93944 21.8258 7.67429 21.7681C6.91328 21.7588 6.1595 21.6191 5.44572 21.355C4.9281 21.1554 4.45801 20.8496 4.06572 20.4573C3.67343 20.065 3.36763 19.595 3.16801 19.0774C2.90392 18.3636 2.76418 17.6099 2.75487 16.8489C2.69772 15.5833 2.68515 15.2038 2.68515 12C2.68515 8.79615 2.69715 8.41674 2.75487 7.15109C2.76418 6.39011 2.90392 5.63637 3.16801 4.92262C3.36763 4.40502 3.67343 3.93496 4.06572 3.54269C4.45801 3.15042 4.9281 2.84463 5.44572 2.64502C6.1595 2.38094 6.91328 2.24121 7.67429 2.23189C8.94001 2.17475 9.31944 2.16218 12.5234 2.16218ZM12.5234 0C9.2663 0 8.85601 0.0137136 7.57601 0.0719965C6.58004 0.0918058 5.59464 0.280376 4.66172 0.629684C3.86143 0.931193 3.13658 1.40368 2.53772 2.01419C1.92664 2.61323 1.45372 3.33847 1.15201 4.13923C0.802683 5.0721 0.614105 6.05745 0.594295 7.05338C0.537152 8.33217 0.523438 8.74244 0.523438 11.9994C0.523438 15.2564 0.537152 15.6667 0.595437 16.9466C0.615248 17.9425 0.803826 18.9279 1.15315 19.8608C1.45453 20.6614 1.92705 21.3867 2.53772 21.9858C3.13691 22.5965 3.86217 23.069 4.66287 23.3703C5.59578 23.7196 6.58118 23.9082 7.57715 23.928C8.85715 23.9851 9.26572 24 12.5246 24C15.7834 24 16.192 23.9863 17.472 23.928C18.468 23.9082 19.4534 23.7196 20.3863 23.3703C21.1832 23.0614 21.9069 22.5896 22.511 21.9851C23.1152 21.3806 23.5865 20.6567 23.8949 19.8596C24.2442 18.9268 24.4328 17.9414 24.4526 16.9455C24.5097 15.6667 24.5234 15.2564 24.5234 11.9994C24.5234 8.74244 24.5097 8.33217 24.4514 7.05224C24.4316 6.05631 24.243 5.07096 23.8937 4.13809C23.5923 3.33743 23.1198 2.6122 22.5092 2.01305C21.91 1.4024 21.1847 0.929903 20.384 0.628541C19.4511 0.279233 18.4657 0.0906631 17.4697 0.0708538C16.1909 0.0137137 15.7806 0 12.5234 0Z" fill="#27272A"/>
<path d="M12.5209 5.83838C11.3021 5.83838 10.1107 6.19977 9.09735 6.87686C8.08397 7.55395 7.29413 8.51632 6.82772 9.64228C6.36131 10.7682 6.23928 12.0072 6.47705 13.2025C6.71483 14.3978 7.30173 15.4958 8.16354 16.3576C9.02535 17.2193 10.1234 17.8062 11.3187 18.044C12.5141 18.2817 13.7531 18.1597 14.8791 17.6933C16.0051 17.2269 16.9676 16.4371 17.6447 15.4238C18.3218 14.4105 18.6832 13.2191 18.6832 12.0004C18.6832 10.3661 18.034 8.79878 16.8783 7.64319C15.7227 6.48759 14.1553 5.83838 12.5209 5.83838ZM12.5209 16.0002C11.7298 16.0002 10.9564 15.7656 10.2987 15.3261C9.64085 14.8866 9.12816 14.2619 8.82541 13.531C8.52266 12.8002 8.44345 11.9959 8.59779 11.22C8.75213 10.4442 9.13309 9.73146 9.6925 9.17208C10.2519 8.6127 10.9646 8.23175 11.7406 8.07742C12.5165 7.92308 13.3208 8.00229 14.0517 8.30503C14.7826 8.60777 15.4073 9.12043 15.8468 9.7782C16.2863 10.436 16.5209 11.2093 16.5209 12.0004C16.5209 13.0612 16.0995 14.0786 15.3494 14.8287C14.5992 15.5788 13.5818 16.0002 12.5209 16.0002Z" fill="#27272A"/>
<path d="M18.928 7.03367C19.7233 7.03367 20.368 6.38899 20.368 5.59374C20.368 4.79849 19.7233 4.15381 18.928 4.15381C18.1327 4.15381 17.488 4.79849 17.488 5.59374C17.488 6.38899 18.1327 7.03367 18.928 7.03367Z" fill="#27272A"/>
</svg>
