<svg width="27" height="34" viewBox="0 0 27 34" fill="none" xmlns="http://www.w3.org/2000/svg">
<path d="M13.3333 16.25C14.1389 16.25 14.8264 15.9653 15.3958 15.3958C15.9653 14.8264 16.25 14.1389 16.25 13.3333C16.25 12.5278 15.9653 11.8403 15.3958 11.2708C14.8264 10.7014 14.1389 10.4167 13.3333 10.4167C12.5278 10.4167 11.8403 10.7014 11.2708 11.2708C10.7014 11.8403 10.4167 12.5278 10.4167 13.3333C10.4167 14.1389 10.7014 14.8264 11.2708 15.3958C11.8403 15.9653 12.5278 16.25 13.3333 16.25ZM13.3333 30.0417C17.0278 26.6806 19.7569 23.6319 21.5208 20.8958C23.2847 18.1597 24.1667 15.75 24.1667 13.6667C24.1667 10.3889 23.1181 7.70833 21.0208 5.625C18.9236 3.54167 16.3611 2.5 13.3333 2.5C10.3056 2.5 7.74305 3.54167 5.64583 5.625C3.54861 7.70833 2.5 10.3889 2.5 13.6667C2.5 15.75 3.40278 18.1597 5.20833 20.8958C7.01389 23.6319 9.72222 26.6806 13.3333 30.0417ZM13.3333 33.3333C8.86111 29.5278 5.52083 25.9931 3.3125 22.7292C1.10417 19.4653 0 16.4444 0 13.6667C0 9.5 1.34028 6.18056 4.02083 3.70833C6.70139 1.23611 9.80556 0 13.3333 0C16.8611 0 19.9653 1.23611 22.6458 3.70833C25.3264 6.18056 26.6667 9.5 26.6667 13.6667C26.6667 16.4444 25.5625 19.4653 23.3542 22.7292C21.1458 25.9931 17.8056 29.5278 13.3333 33.3333Z" fill="#E23D3D"/>
</svg>
