<svg width="345" height="41" viewBox="0 0 345 41" fill="none" xmlns="http://www.w3.org/2000/svg">
<path d="M344.362 4.06782C344.877 4.26774 345.132 4.84716 344.932 5.362L341.674 13.7516C341.474 14.2664 340.895 14.5217 340.38 14.3218C339.865 14.1219 339.61 13.5425 339.81 13.0276L342.706 5.57019L335.248 2.67423C334.734 2.4743 334.478 1.89488 334.678 1.38005C334.878 0.865223 335.458 0.609943 335.972 0.809868L344.362 4.06782ZM1.35585 4.06546C2.82288 4.62407 4.39874 5.20927 6.07719 5.81724L5.39605 7.69768C3.70818 7.08629 2.1221 6.49731 0.644148 5.93454L1.35585 4.06546ZM15.6792 9.15806C18.6967 10.1696 21.9193 11.2171 25.326 12.2879L24.7263 14.1958C21.3079 13.1214 18.0733 12.07 15.0435 11.0544L15.6792 9.15806ZM35.0415 15.2514C38.1832 16.1816 41.4422 17.12 44.8057 18.0589L44.2679 19.9853C40.8943 19.0435 37.6253 18.1022 34.4737 17.1691L35.0415 15.2514ZM54.6161 20.7172C57.8274 21.5612 61.1143 22.3998 64.4675 23.2271L63.9885 25.1689C60.6252 24.3391 57.3285 23.4981 54.1077 22.6515L54.6161 20.7172ZM74.3373 25.5823C77.5956 26.3334 80.9042 27.0698 84.2554 27.7867L83.837 29.7425C80.4752 29.0233 77.1563 28.2846 73.888 27.5312L74.3373 25.5823ZM94.2066 29.8309C97.5027 30.4795 100.831 31.106 104.185 31.706L103.833 33.6747C100.467 33.0726 97.1274 32.444 93.8204 31.7932L94.2066 29.8309ZM114.201 33.4043C117.531 33.9373 120.879 34.441 124.239 34.9113L123.961 36.892C120.589 36.4198 117.228 35.9142 113.885 35.3792L114.201 33.4043ZM134.308 36.2143C137.669 36.6128 141.036 36.9744 144.4 37.2951L144.21 39.2861C140.83 38.9638 137.448 38.6006 134.072 38.2004L134.308 36.2143ZM154.512 38.1333C157.9 38.3707 161.279 38.5625 164.643 38.7047L164.559 40.7029C161.175 40.5599 157.778 40.367 154.372 40.1284L154.512 38.1333ZM174.78 38.9799C176.474 38.9993 178.163 39.0048 179.845 38.9959L179.855 40.9958C178.162 41.0048 176.462 40.9993 174.757 40.9797L174.78 38.9799ZM179.845 38.9959C181.597 38.9866 183.35 38.9624 185.103 38.9239L185.147 40.9234C183.383 40.9621 181.619 40.9865 179.855 40.9958L179.845 38.9959ZM195.616 38.5254C199.123 38.3379 202.624 38.0975 206.113 37.8087L206.278 39.8019C202.77 40.0922 199.25 40.334 195.723 40.5225L195.616 38.5254ZM216.589 36.7961C220.093 36.4097 223.578 35.9785 227.038 35.5073L227.307 37.489C223.831 37.9624 220.33 38.3957 216.808 38.784L216.589 36.7961ZM237.447 33.9603C240.942 33.3983 244.403 32.7993 247.824 32.1684L248.187 34.1352C244.751 34.7688 241.275 35.3704 237.765 35.9349L237.447 33.9603ZM258.162 30.1439C261.645 29.4223 265.077 28.6718 268.45 27.8983L268.897 29.8477C265.511 30.6242 262.065 31.3778 258.567 32.1023L258.162 30.1439ZM278.687 25.4393C282.162 24.5667 285.56 23.6749 288.871 22.7713L289.398 24.7008C286.073 25.6079 282.662 26.5031 279.174 27.3791L278.687 25.4393ZM299.003 19.8951C302.486 18.8675 305.849 17.8348 309.078 16.8073L309.684 18.7132C306.442 19.7449 303.065 20.7817 299.569 21.8134L299.003 19.8951ZM319.08 13.5015C322.604 12.2918 325.912 11.1059 328.983 9.96183L329.681 11.836C326.594 12.9863 323.269 14.178 319.73 15.3931L319.08 13.5015ZM338.782 6.13227C340.521 5.41649 342.128 4.73195 343.597 4.08488L344.403 5.91512C342.918 6.56937 341.296 7.26028 339.543 7.98166L338.782 6.13227Z" fill="#E23D3D"/>
</svg>
