<svg width="40" height="40" viewBox="0 0 40 40" fill="none" xmlns="http://www.w3.org/2000/svg">
<path d="M7.5 36.3333C6.83333 36.3333 6.25 36.0833 5.75 35.5833C5.25 35.0833 5 34.5 5 33.8333V8C5 7.33333 5.25 6.75 5.75 6.25C6.25 5.75 6.83333 5.5 7.5 5.5H10.2083V3H12.9167V5.5H27.0833V3H29.7917V5.5H32.5C33.1667 5.5 33.75 5.75 34.25 6.25C34.75 6.75 35 7.33333 35 8V33.8333C35 34.5 34.75 35.0833 34.25 35.5833C33.75 36.0833 33.1667 36.3333 32.5 36.3333H7.5ZM7.5 33.8333H32.5V15.9167H7.5V33.8333ZM7.5 13.4167H32.5V8H7.5V13.4167ZM7.5 13.4167V8V13.4167ZM20 23C19.5278 23 19.1319 22.8403 18.8125 22.5208C18.4931 22.2014 18.3333 21.8056 18.3333 21.3333C18.3333 20.8611 18.4931 20.4653 18.8125 20.1458C19.1319 19.8264 19.5278 19.6667 20 19.6667C20.4722 19.6667 20.8681 19.8264 21.1875 20.1458C21.5069 20.4653 21.6667 20.8611 21.6667 21.3333C21.6667 21.8056 21.5069 22.2014 21.1875 22.5208C20.8681 22.8403 20.4722 23 20 23ZM13.3333 23C12.8611 23 12.4653 22.8403 12.1458 22.5208C11.8264 22.2014 11.6667 21.8056 11.6667 21.3333C11.6667 20.8611 11.8264 20.4653 12.1458 20.1458C12.4653 19.8264 12.8611 19.6667 13.3333 19.6667C13.8056 19.6667 14.2014 19.8264 14.5208 20.1458C14.8403 20.4653 15 20.8611 15 21.3333C15 21.8056 14.8403 22.2014 14.5208 22.5208C14.2014 22.8403 13.8056 23 13.3333 23ZM26.6667 23C26.1944 23 25.7986 22.8403 25.4792 22.5208C25.1597 22.2014 25 21.8056 25 21.3333C25 20.8611 25.1597 20.4653 25.4792 20.1458C25.7986 19.8264 26.1944 19.6667 26.6667 19.6667C27.1389 19.6667 27.5347 19.8264 27.8542 20.1458C28.1736 20.4653 28.3333 20.8611 28.3333 21.3333C28.3333 21.8056 28.1736 22.2014 27.8542 22.5208C27.5347 22.8403 27.1389 23 26.6667 23ZM20 29.6667C19.5278 29.6667 19.1319 29.5069 18.8125 29.1875C18.4931 28.8681 18.3333 28.4722 18.3333 28C18.3333 27.5278 18.4931 27.1319 18.8125 26.8125C19.1319 26.4931 19.5278 26.3333 20 26.3333C20.4722 26.3333 20.8681 26.4931 21.1875 26.8125C21.5069 27.1319 21.6667 27.5278 21.6667 28C21.6667 28.4722 21.5069 28.8681 21.1875 29.1875C20.8681 29.5069 20.4722 29.6667 20 29.6667ZM13.3333 29.6667C12.8611 29.6667 12.4653 29.5069 12.1458 29.1875C11.8264 28.8681 11.6667 28.4722 11.6667 28C11.6667 27.5278 11.8264 27.1319 12.1458 26.8125C12.4653 26.4931 12.8611 26.3333 13.3333 26.3333C13.8056 26.3333 14.2014 26.4931 14.5208 26.8125C14.8403 27.1319 15 27.5278 15 28C15 28.4722 14.8403 28.8681 14.5208 29.1875C14.2014 29.5069 13.8056 29.6667 13.3333 29.6667ZM26.6667 29.6667C26.1944 29.6667 25.7986 29.5069 25.4792 29.1875C25.1597 28.8681 25 28.4722 25 28C25 27.5278 25.1597 27.1319 25.4792 26.8125C25.7986 26.4931 26.1944 26.3333 26.6667 26.3333C27.1389 26.3333 27.5347 26.4931 27.8542 26.8125C28.1736 27.1319 28.3333 27.5278 28.3333 28C28.3333 28.4722 28.1736 28.8681 27.8542 29.1875C27.5347 29.5069 27.1389 29.6667 26.6667 29.6667Z" fill="#E23D3D"/>
</svg>
