<svg width="24" height="20" viewBox="0 0 24 20" fill="none" xmlns="http://www.w3.org/2000/svg">
<path d="M24 2.23925C23.1 2.63734 22.15 2.88615 21.15 3.03543C22.15 2.4383 22.95 1.49284 23.3 0.348329C22.35 0.895702 21.3 1.29379 20.15 1.5426C19.25 0.597134 17.95 0 16.55 0C13.85 0 11.65 2.18949 11.65 4.8766C11.65 5.27469 11.7 5.62302 11.8 5.97134C7.75 5.7723 4.1 3.83161 1.65 0.845941C1.25 1.59236 1 2.38854 1 3.28424C1 4.97612 1.85 6.46896 3.2 7.36466C2.4 7.3149 1.65 7.11585 0.95 6.76752V6.81729C0.95 9.20582 2.65 11.1963 4.9 11.6441C4.5 11.7436 4.05 11.7934 3.6 11.7934C3.3 11.7934 2.95 11.7436 2.65 11.6939C3.3 13.6346 5.1 15.0776 7.25 15.0776C5.55 16.3714 3.45 17.1676 1.15 17.1676C0.75 17.1676 0.35 17.1676 0 17.1179C2.2 18.5112 4.75 19.3074 7.55 19.3074C16.6 19.3074 21.55 11.8432 21.55 5.37421C21.55 5.17517 21.55 4.92636 21.55 4.72731C22.5 4.08042 23.35 3.23448 24 2.23925Z" fill="#27272A"/>
</svg>
