<svg width="207" height="44" viewBox="0 0 207 44" fill="none" xmlns="http://www.w3.org/2000/svg">
<path d="M23.58 7.41392L25.2246 5.7693C28.4542 2.53971 33.712 2.45977 36.9602 5.67076C38.191 6.89016 39.009 8.46449 39.2991 10.1726C39.5893 11.8807 39.337 13.6368 38.5778 15.1942C38.2136 15.9381 38.091 16.7772 38.2267 17.5943C38.3627 18.4113 38.7504 19.1656 39.3357 19.7516C40.4121 18.6727 41.2652 17.3924 41.8465 15.9837C42.4278 14.575 42.726 13.0656 42.7239 11.5417C42.7216 10.0178 42.4194 8.50919 41.834 7.10216C41.2487 5.69512 40.3918 4.4172 39.3124 3.3414C34.7705 -1.17499 27.3979 -1.08512 22.8686 3.44396L7.19268 19.1195L5.90397 17.8308C2.61961 14.5464 2.59867 9.1778 5.94098 5.9518C7.17815 4.76137 8.75433 3.98425 10.452 3.72774C12.1496 3.47122 13.885 3.74795 15.4187 4.51972C16.1187 4.87844 16.9142 5.00676 17.6915 4.88637C18.4688 4.76598 19.1882 4.40303 19.7469 3.84935L19.7869 3.8096C19.7993 3.79725 19.8091 3.78255 19.8159 3.76635C19.8226 3.75017 19.8261 3.73281 19.8261 3.71528C19.8261 3.69775 19.8226 3.68039 19.8159 3.66421C19.8091 3.64803 19.7993 3.63333 19.7869 3.62096C17.6293 1.51759 14.738 0.336131 11.7248 0.326578C8.71166 0.317028 5.81293 1.48013 3.64207 3.56979C-1.0342 8.08407 -1.01749 15.5909 3.57863 20.187L19.2499 35.8583L17.5852 37.523C14.3556 40.7526 9.09761 40.8325 5.84962 37.6216C4.61884 36.4022 3.80093 34.8278 3.51077 33.1198C3.22063 31.4117 3.47279 29.6556 4.23187 28.0981C4.59604 27.3542 4.71878 26.5151 4.58295 25.6982C4.4471 24.881 4.05945 24.1267 3.47416 23.5407C2.39784 24.6197 1.54463 25.8999 0.963265 27.3085C0.381903 28.7173 0.0837889 30.2266 0.0859492 31.7507C0.0881094 33.2745 0.390501 34.7832 0.975856 36.1901C1.56121 37.5972 2.41805 38.8752 3.49743 39.9509C8.0392 44.4675 15.4119 44.3779 19.9412 39.8486L35.6375 24.1521L36.9311 25.4457C40.1607 28.6753 40.2406 33.9331 37.0296 37.1811C35.8103 38.412 34.2359 39.2298 32.5278 39.5201C30.8197 39.8103 29.0637 39.558 27.5062 38.7988C26.762 38.4344 25.9225 38.3116 25.1052 38.4478C24.2878 38.5837 23.5333 38.9718 22.9473 39.5576C24.0262 40.634 25.3065 41.4873 26.7151 42.0686C28.1239 42.6499 29.6332 42.9481 31.1573 42.946C32.6811 42.9437 34.1898 42.6413 35.5967 42.0559C37.0038 41.4705 38.2817 40.6137 39.3575 39.5343C43.8741 34.9925 43.7842 27.6198 39.2551 23.0907L23.58 7.41392ZM21.5901 33.5171L9.53345 21.4605L21.239 9.75512L33.2957 21.8117L21.5901 33.5171Z" fill="#52525B"/>
<path d="M62.7398 35.6282C60.3406 35.6282 58.5065 34.9243 57.2375 33.5165C55.9784 32.1087 55.2745 30.1854 55.1258 27.7466L58.9328 26.7948C59.1212 30.6018 60.3901 32.5053 62.7398 32.5053C64.6432 32.5053 65.595 31.5535 65.595 29.6501C65.595 29.085 65.5157 28.5645 65.357 28.0886C65.2083 27.6028 64.9754 27.1617 64.6581 26.7651C64.3409 26.3586 64.0534 26.0364 63.7956 25.7985C63.5378 25.5506 63.1859 25.2483 62.7398 24.8914L57.9811 21.0844C57.1086 20.4003 56.4097 19.5329 55.8843 18.482C55.3687 17.4212 55.111 16.2166 55.111 14.8683C55.111 12.9054 55.7207 11.3439 56.9401 10.184C58.1595 9.02406 59.7755 8.44409 61.788 8.44409C63.9493 8.44409 65.6644 8.97449 66.9334 10.0353C68.2123 11.0862 69.0004 12.5782 69.2978 14.5114C69.3276 14.7196 69.3623 15.0071 69.4019 15.374L65.595 16.3257C65.5851 16.1572 65.5603 15.9043 65.5206 15.5673C65.3521 14.3578 64.9704 13.3912 64.3756 12.6674C63.7906 11.9338 62.9281 11.567 61.788 11.567C60.8759 11.567 60.172 11.8248 59.6763 12.3403C59.1806 12.8459 58.9328 13.5547 58.9328 14.4668C58.9328 15.9638 59.5673 17.2179 60.8363 18.2292L65.595 22.0361C68.133 24.0883 69.4019 26.542 69.4019 29.3973C69.4019 31.3503 68.7972 32.8771 67.5877 33.9775C66.3881 35.078 64.7721 35.6282 62.7398 35.6282Z" fill="#52525B"/>
<path d="M77.3579 32.5053C78.3592 32.5053 79.3109 32.2475 80.2131 31.732V19.9542C80.1735 19.9344 80.0743 19.8749 79.9157 19.7758C79.7571 19.6766 79.6431 19.6122 79.5737 19.5824C79.5142 19.5428 79.4101 19.4833 79.2614 19.404C79.1127 19.3247 78.9887 19.2701 78.8896 19.2404C78.8004 19.2007 78.6814 19.1611 78.5327 19.1214C78.3939 19.0719 78.2551 19.0372 78.1163 19.0173C77.9874 18.9975 77.8486 18.9876 77.6999 18.9876C77.3827 18.9876 77.1001 19.0619 76.8523 19.2107C76.6143 19.3495 76.4161 19.518 76.2574 19.7163C76.0988 19.9145 75.96 20.1971 75.8411 20.5639C75.732 20.9307 75.6527 21.2579 75.6031 21.5454C75.5536 21.823 75.5139 22.1997 75.4842 22.6756C75.4544 23.1415 75.4346 23.5034 75.4247 23.7612C75.4247 24.0189 75.4247 24.3808 75.4247 24.8467C75.4247 24.8666 75.4247 24.8814 75.4247 24.8914C75.4247 25.0599 75.4247 25.3325 75.4247 25.7093C75.4247 26.086 75.4247 26.4478 75.4247 26.7948C75.4247 27.1418 75.4247 27.469 75.4247 27.7763C75.4346 28.4406 75.4643 29.0255 75.5139 29.5311C75.5734 30.0268 75.6676 30.5175 75.7964 31.0033C75.9352 31.4792 76.1335 31.851 76.3913 32.1186C76.659 32.3764 76.9812 32.5053 77.3579 32.5053ZM80.2131 41.0709V33.6503C79.648 34.2353 79.0631 34.7111 78.4583 35.078C77.8635 35.4448 77.1794 35.6282 76.4062 35.6282C75.6725 35.6282 75.0182 35.4448 74.4432 35.078C73.8781 34.7012 73.4221 34.2204 73.0751 33.6355C72.738 33.0506 72.4554 32.3615 72.2274 31.5684C72.0093 30.7654 71.8556 29.9772 71.7664 29.2039C71.6871 28.4306 71.6475 27.6276 71.6475 26.7948V23.895C71.6475 23.0325 71.6871 22.2443 71.7664 21.5305C71.8457 20.8167 71.9895 20.1128 72.1977 19.4188C72.4059 18.7249 72.6785 18.1399 73.0156 17.6641C73.3626 17.1783 73.8186 16.7916 74.3837 16.5041C74.9488 16.2067 75.6031 16.058 76.3467 16.058C76.773 16.058 77.1695 16.1175 77.5363 16.2365C77.9131 16.3455 78.27 16.524 78.6071 16.7718C78.954 17.0197 79.2217 17.2378 79.4101 17.4261C79.6084 17.6046 79.876 17.8723 80.2131 18.2292V16.3257H84.0201V41.0709H80.2131Z" fill="#52525B"/>
<path d="M89.79 35.6282C88.9572 35.6282 88.288 35.3357 87.7824 34.7508C87.2768 34.156 87.024 33.4223 87.024 32.5499V16.3257H90.831V31.39C90.831 31.7865 90.9499 32.1087 91.1879 32.3566C91.4357 32.6044 91.753 32.7283 92.1396 32.7283C92.3478 32.7283 92.551 32.7036 92.7493 32.654C92.9476 32.6044 93.1409 32.5202 93.3293 32.4012C93.5276 32.2723 93.6812 32.1732 93.7903 32.1038C93.8993 32.0245 94.053 31.8956 94.2513 31.7171C94.4595 31.5387 94.5884 31.4296 94.6379 31.39V16.3257H98.4449V35.3605H94.6379V33.3083C94.2612 33.6355 93.9836 33.8734 93.8052 34.0221C93.6366 34.1708 93.3739 34.3741 93.017 34.6318C92.6601 34.8797 92.3429 35.0631 92.0653 35.1821C91.7976 35.2911 91.4605 35.3902 91.054 35.4795C90.6476 35.5786 90.2262 35.6282 89.79 35.6282Z" fill="#52525B"/>
<path d="M106.981 32.5053C107.248 32.5053 107.506 32.426 107.754 32.2673C108.012 32.1087 108.205 31.9551 108.334 31.8063C108.463 31.6576 108.622 31.4594 108.81 31.2115C108.84 31.1619 108.864 31.1272 108.884 31.1074V25.8431C108.726 25.9522 108.463 26.1207 108.096 26.3487C107.729 26.5767 107.437 26.7651 107.219 26.9138C107.001 27.0526 106.738 27.2509 106.431 27.5086C106.123 27.7565 105.885 27.9994 105.717 28.2373C105.548 28.4653 105.4 28.7479 105.271 29.085C105.142 29.422 105.077 29.774 105.077 30.1408C105.077 31.7171 105.712 32.5053 106.981 32.5053ZM105.077 35.6282C104.017 35.6282 103.114 35.1721 102.371 34.2601C101.637 33.3381 101.27 32.302 101.27 31.152C101.27 30.23 101.424 29.3923 101.731 28.6388C102.049 27.8854 102.381 27.2856 102.728 26.8395C103.075 26.3834 103.655 25.9175 104.468 25.4416C105.281 24.9558 105.895 24.6237 106.312 24.4452C106.728 24.2668 107.452 23.9743 108.483 23.5678C108.661 23.4984 108.795 23.4439 108.884 23.4043V22.0361C108.884 21.0745 108.75 20.3309 108.483 19.8055C108.215 19.2701 107.714 19.0025 106.981 19.0025C106.326 19.0025 105.856 19.2305 105.568 19.6865C105.29 20.1327 105.132 20.7523 105.092 21.5454C105.082 21.6544 105.077 21.818 105.077 22.0361H101.27C101.29 20.212 101.801 18.7596 102.802 17.6789C103.803 16.5983 105.196 16.058 106.981 16.058C108.755 16.058 110.148 16.6082 111.16 17.7087C112.181 18.7992 112.691 20.2417 112.691 22.0361V30.6018C112.691 32.5846 112.855 34.1708 113.182 35.3605H109.39L108.884 32.5053C108.686 32.9018 108.522 33.2092 108.394 33.4273C108.275 33.6454 108.096 33.918 107.858 34.2452C107.62 34.5624 107.382 34.8103 107.144 34.9887C106.906 35.1573 106.609 35.306 106.252 35.4349C105.895 35.5637 105.504 35.6282 105.077 35.6282Z" fill="#52525B"/>
<path d="M115.978 35.3605V16.3257H119.785V18.8686C120.171 18.1152 120.731 17.4608 121.465 16.9057C122.209 16.3406 123.032 16.058 123.934 16.058C123.963 16.058 124.167 16.0778 124.543 16.1175V20.326C123.84 20.0484 123.136 19.9096 122.432 19.9096C121.639 19.9096 120.999 20.1475 120.513 20.6234C120.028 21.0993 119.785 21.7288 119.785 22.512V35.3605H115.978Z" fill="#52525B"/>
<path d="M131.533 35.6282C130.611 35.6282 129.808 35.4696 129.124 35.1523C128.45 34.8351 127.909 34.4236 127.503 33.918C127.106 33.4025 126.784 32.7482 126.536 31.9551C126.288 31.152 126.115 30.354 126.016 29.5608C125.926 28.7578 125.872 27.8259 125.852 26.7651C125.822 25.9323 125.822 25.0996 125.852 24.2668C125.882 23.2754 125.946 22.398 126.045 21.6346C126.154 20.8613 126.338 20.1128 126.596 19.3891C126.853 18.6654 127.185 18.0706 127.592 17.6046C128.008 17.1386 128.549 16.7669 129.213 16.4893C129.887 16.2018 130.67 16.058 131.562 16.058C132.375 16.058 133.089 16.1671 133.704 16.3852C134.328 16.5934 134.844 16.9156 135.25 17.3518C135.667 17.7781 136.009 18.254 136.277 18.7794C136.554 19.3048 136.762 19.9443 136.901 20.6978C137.04 21.4413 137.134 22.1749 137.184 22.8987C137.243 23.6224 137.273 24.4551 137.273 25.397V25.8431H129.659V26.7948C129.659 26.9237 129.659 27.127 129.659 27.4045C129.639 27.7714 129.634 28.1531 129.644 28.5496C129.664 28.9363 129.684 29.3179 129.704 29.6947C129.723 30.0714 129.778 30.4333 129.867 30.7803C129.956 31.1173 130.065 31.4147 130.194 31.6725C130.323 31.9303 130.502 32.1335 130.73 32.2822C130.968 32.4309 131.245 32.5053 131.562 32.5053C131.959 32.5053 132.286 32.4309 132.544 32.2822C132.802 32.1236 132.99 31.8906 133.109 31.5833C133.238 31.2759 133.327 30.9686 133.377 30.6613C133.426 30.354 133.456 29.9673 133.466 29.5014V28.6983H137.243V29.4567C137.154 31.4891 136.653 33.0258 135.741 34.0667C134.829 35.1077 133.426 35.6282 131.533 35.6282ZM129.659 23.9396H133.436V22.7946C133.426 22.2889 133.397 21.8478 133.347 21.471C133.297 21.0943 133.208 20.7176 133.079 20.3408C132.96 19.9641 132.772 19.6766 132.514 19.4783C132.256 19.2801 131.939 19.1809 131.562 19.1809C131.176 19.1809 130.849 19.285 130.581 19.4932C130.323 19.7014 130.13 20.0038 130.001 20.4003C129.882 20.787 129.798 21.1687 129.748 21.5454C129.699 21.9221 129.669 22.3732 129.659 22.8987V23.9396Z" fill="#52525B"/>
<path d="M147.147 35.6282C144.748 35.6282 142.914 34.9243 141.645 33.5165C140.386 32.1087 139.682 30.1854 139.533 27.7466L143.34 26.7948C143.529 30.6018 144.798 32.5053 147.147 32.5053C149.051 32.5053 150.002 31.5535 150.002 29.6501C150.002 29.085 149.923 28.5645 149.765 28.0886C149.616 27.6028 149.383 27.1617 149.066 26.7651C148.748 26.3586 148.461 26.0364 148.203 25.7985C147.945 25.5506 147.593 25.2483 147.147 24.8914L142.389 21.0844C141.516 20.4003 140.817 19.5329 140.292 18.482C139.776 17.4212 139.518 16.2166 139.518 14.8683C139.518 12.9054 140.128 11.3439 141.348 10.184C142.567 9.02406 144.183 8.44409 146.196 8.44409C148.357 8.44409 150.072 8.97449 151.341 10.0353C152.62 11.0862 153.408 12.5782 153.705 14.5114C153.735 14.7196 153.77 15.0071 153.809 15.374L150.002 16.3257C149.993 16.1572 149.968 15.9043 149.928 15.5673C149.76 14.3578 149.378 13.3912 148.783 12.6674C148.198 11.9338 147.336 11.567 146.196 11.567C145.283 11.567 144.58 11.8248 144.084 12.3403C143.588 12.8459 143.34 13.5547 143.34 14.4668C143.34 15.9638 143.975 17.2179 145.244 18.2292L150.002 22.0361C152.54 24.0883 153.809 26.542 153.809 29.3973C153.809 31.3503 153.205 32.8771 151.995 33.9775C150.796 35.078 149.18 35.6282 147.147 35.6282Z" fill="#52525B"/>
<path d="M161.706 35.6282C160.209 35.6282 159.118 35.2465 158.434 34.4831C157.76 33.7197 157.413 32.5648 157.393 31.0182V19.1809H155.49V16.3257H157.393V9.66351H161.2V16.3257H164.056V19.1809H161.2V30.2895C161.2 31.0529 161.304 31.613 161.513 31.9699C161.721 32.3268 162.142 32.5053 162.777 32.5053C163.054 32.5053 163.48 32.4557 164.056 32.3566V35.4497C163.104 35.5687 162.321 35.6282 161.706 35.6282Z" fill="#52525B"/>
<path d="M176.458 33.8437C175.576 35.0333 174.113 35.6282 172.071 35.6282C170.029 35.6282 168.566 35.0333 167.684 33.8437C166.802 32.654 166.361 30.9389 166.361 28.6983V22.9879C166.361 20.7473 166.802 19.0322 167.684 17.8425C168.566 16.6529 170.029 16.058 172.071 16.058C174.113 16.058 175.576 16.6529 176.458 17.8425C177.34 19.0322 177.781 20.7473 177.781 22.9879V28.6983C177.781 30.9389 177.34 32.654 176.458 33.8437ZM171.357 32.3863C171.565 32.4656 171.803 32.5053 172.071 32.5053C172.339 32.5053 172.572 32.4656 172.77 32.3863C172.978 32.307 173.147 32.2128 173.275 32.1038C173.414 31.9848 173.528 31.8163 173.618 31.5982C173.707 31.3701 173.776 31.1719 173.826 31.0033C173.875 30.8348 173.91 30.5919 173.93 30.2746C173.95 29.9574 173.96 29.7095 173.96 29.5311C173.969 29.3427 173.974 29.0651 173.974 28.6983V22.9879C173.974 22.6211 173.969 22.3484 173.96 22.17C173.96 21.9816 173.95 21.7288 173.93 21.4116C173.91 21.0943 173.875 20.8514 173.826 20.6829C173.776 20.5143 173.707 20.321 173.618 20.1029C173.528 19.8749 173.414 19.7064 173.275 19.5973C173.147 19.4783 172.978 19.3792 172.77 19.2999C172.572 19.2206 172.339 19.1809 172.071 19.1809C171.803 19.1809 171.565 19.2206 171.357 19.2999C171.159 19.3792 170.99 19.4783 170.852 19.5973C170.723 19.7064 170.614 19.8749 170.524 20.1029C170.435 20.321 170.366 20.5143 170.316 20.6829C170.267 20.8514 170.232 21.0943 170.212 21.4116C170.192 21.7288 170.177 21.9816 170.167 22.17C170.167 22.3484 170.167 22.6211 170.167 22.9879V28.6983C170.167 29.0651 170.167 29.3427 170.167 29.5311C170.177 29.7095 170.192 29.9574 170.212 30.2746C170.232 30.5919 170.267 30.8348 170.316 31.0033C170.366 31.1719 170.435 31.3701 170.524 31.5982C170.614 31.8163 170.723 31.9848 170.852 32.1038C170.99 32.2128 171.159 32.307 171.357 32.3863Z" fill="#52525B"/>
<path d="M180.904 35.3605V16.3257H184.711V18.3779C185.276 17.8624 185.737 17.4708 186.094 17.2031C186.451 16.9255 186.942 16.6677 187.566 16.4298C188.201 16.1819 188.875 16.058 189.589 16.058C190.402 16.058 191.061 16.3554 191.567 16.9503C192.072 17.5451 192.325 18.2738 192.325 19.1363V35.3605H188.518V21.0844C188.518 20.4202 188.424 19.9393 188.236 19.6419C188.047 19.3346 187.666 19.1809 187.091 19.1809C186.763 19.1809 186.436 19.2503 186.109 19.3891C185.792 19.518 185.554 19.6419 185.395 19.7609C185.237 19.8699 185.009 20.0484 184.711 20.2962V35.3605H180.904Z" fill="#52525B"/>
<path d="M201.04 35.6282C200.118 35.6282 199.315 35.4696 198.63 35.1523C197.956 34.8351 197.416 34.4236 197.01 33.918C196.613 33.4025 196.291 32.7482 196.043 31.9551C195.795 31.152 195.622 30.354 195.522 29.5608C195.433 28.7578 195.379 27.8259 195.359 26.7651C195.329 25.9323 195.329 25.0996 195.359 24.2668C195.389 23.2754 195.453 22.398 195.552 21.6346C195.661 20.8613 195.845 20.1128 196.102 19.3891C196.36 18.6654 196.692 18.0706 197.099 17.6046C197.515 17.1386 198.055 16.7669 198.72 16.4893C199.394 16.2018 200.177 16.058 201.069 16.058C201.882 16.058 202.596 16.1671 203.211 16.3852C203.835 16.5934 204.351 16.9156 204.757 17.3518C205.174 17.7781 205.516 18.254 205.783 18.7794C206.061 19.3048 206.269 19.9443 206.408 20.6978C206.547 21.4413 206.641 22.1749 206.691 22.8987C206.75 23.6224 206.78 24.4551 206.78 25.397V25.8431H199.166V26.7948C199.166 26.9237 199.166 27.127 199.166 27.4045C199.146 27.7714 199.141 28.1531 199.151 28.5496C199.171 28.9363 199.191 29.3179 199.21 29.6947C199.23 30.0714 199.285 30.4333 199.374 30.7803C199.463 31.1173 199.572 31.4147 199.701 31.6725C199.83 31.9303 200.008 32.1335 200.237 32.2822C200.474 32.4309 200.752 32.5053 201.069 32.5053C201.466 32.5053 201.793 32.4309 202.051 32.2822C202.309 32.1236 202.497 31.8906 202.616 31.5833C202.745 31.2759 202.834 30.9686 202.884 30.6613C202.933 30.354 202.963 29.9673 202.973 29.5014V28.6983H206.75V29.4567C206.661 31.4891 206.16 33.0258 205.248 34.0667C204.336 35.1077 202.933 35.6282 201.04 35.6282ZM199.166 23.9396H202.943V22.7946C202.933 22.2889 202.903 21.8478 202.854 21.471C202.804 21.0943 202.715 20.7176 202.586 20.3408C202.467 19.9641 202.279 19.6766 202.021 19.4783C201.763 19.2801 201.446 19.1809 201.069 19.1809C200.683 19.1809 200.355 19.285 200.088 19.4932C199.83 19.7014 199.637 20.0038 199.508 20.4003C199.389 20.787 199.305 21.1687 199.255 21.5454C199.205 21.9221 199.176 22.3732 199.166 22.8987V23.9396Z" fill="#52525B"/>
</svg>
