<svg width="49" height="44" viewBox="0 0 49 44" fill="none" xmlns="http://www.w3.org/2000/svg">
<path d="M40.3887 36.0337C39.5401 35.087 38.8203 34.0307 38.2484 32.8926C37.3449 31.1089 36.096 29.5253 34.5755 28.2353C33.0549 26.9452 31.2934 25.9747 29.3948 25.381C27.7345 24.8639 25.9971 24.6445 24.2615 24.7326C25.5247 24.6599 26.7686 25.0707 27.7438 25.8828C28.719 26.6949 29.3535 27.8481 29.5202 29.1116C29.9769 31.8414 31.178 34.3897 32.9896 36.4715C34.801 38.5535 37.1515 40.087 39.7784 40.9011C42.7822 41.831 46.0009 41.7809 48.9748 40.758C45.6622 40.2138 42.6333 38.5472 40.3887 36.0337Z" fill="#52525B"/>
<path d="M19.0899 24.4624C19.4764 26.1478 20.1563 27.7534 21.099 29.2069C20.4106 28.1515 20.1457 26.8783 20.3565 25.6386C20.5672 24.3988 21.2384 23.2825 22.2374 22.5097C24.3594 20.7675 25.9525 18.4747 26.8394 15.8868C27.7261 13.299 27.8718 10.5175 27.2601 7.85239C26.5619 4.80351 24.9056 2.05385 22.5304 0.000244141C23.7129 3.13786 23.7809 6.58225 22.723 9.76349C22.318 10.9645 21.755 12.1072 21.0488 13.1619C19.9644 14.8189 19.2256 16.6749 18.8762 18.6201C18.5268 20.5654 18.5739 22.5604 19.0146 24.4873L19.0899 24.4624Z" fill="#52525B"/>
<path d="M26.4918 30.3303C25.9304 31.4642 24.9678 32.3407 23.797 32.7837C22.6264 33.2268 21.3339 33.2039 20.1791 32.7195C17.6341 31.7506 14.874 31.5197 12.2074 32.0526C9.54059 32.5855 7.07229 33.8614 5.07822 35.7374C2.80458 37.8862 1.26148 40.713 0.671631 43.8103C2.78733 41.2013 5.71568 39.4033 8.97303 38.7134C10.1968 38.459 11.4469 38.3604 12.6946 38.42C14.6517 38.523 16.6092 38.2267 18.4517 37.5486C20.2941 36.8704 21.9842 35.8242 23.4221 34.4716C24.6805 33.2844 25.7249 31.8829 26.5083 30.3303H26.4918Z" fill="#52525B"/>
</svg>
