<svg width="183" height="41" viewBox="0 0 183 41" fill="none" xmlns="http://www.w3.org/2000/svg">
<path d="M34.9888 15.578L34.9643 15.5536C34.9623 15.5522 34.9608 15.5504 34.9598 15.5482L19.659 0.24707L4.35834 15.5478C4.35658 15.5496 4.35559 15.552 4.35382 15.5532L4.32857 15.5776C1.98889 17.9304 0.502788 20.9978 0.106512 24.2922C-0.289764 27.5867 0.426527 30.919 2.14151 33.7596C3.8565 36.6002 6.47176 38.7861 9.57158 39.9695C12.6714 41.1529 16.0778 41.2663 19.2494 40.2913C19.5163 40.2097 19.8015 40.2097 20.0684 40.2913C23.2398 41.2659 26.646 41.1525 29.7456 39.9689C32.8452 38.7853 35.4602 36.5996 37.1751 33.7592C38.89 30.9188 39.6063 27.5867 39.2102 24.2924C38.8141 20.9982 37.3282 17.9309 34.9888 15.578ZM9.79905 25.6679C9.72457 25.7424 9.6655 25.8309 9.62521 25.9281C9.58491 26.0253 9.56417 26.1296 9.56419 26.2349C9.59141 28.9354 10.3546 31.5773 11.7716 33.8764C11.8038 33.9285 11.8187 33.9896 11.8141 34.0506C11.8096 34.1117 11.7858 34.1698 11.7462 34.2166C11.7066 34.2634 11.6533 34.2964 11.5938 34.311C11.5343 34.3256 11.4716 34.3211 11.4149 34.298C10.3496 33.8499 9.38187 33.1985 8.56577 32.3804C6.89329 30.7076 5.95305 28.4394 5.95153 26.0739C5.95001 23.7084 6.88734 21.439 8.55769 19.7642L19.659 8.6639L30.7597 19.7642C32.4303 21.4388 33.368 23.7082 33.3664 26.0739C33.365 28.4394 32.4246 30.7076 30.752 32.3804C29.9359 33.1985 28.9682 33.8499 27.9031 34.298C27.8462 34.3211 27.7836 34.3256 27.7241 34.311C27.6647 34.2964 27.6113 34.2632 27.5716 34.2166C27.5321 34.1698 27.5082 34.1117 27.5036 34.0504C27.4991 33.9894 27.5139 33.9283 27.5461 33.8762C28.9635 31.5773 29.727 28.9354 29.7547 26.2349C29.7547 26.1296 29.7338 26.0253 29.6933 25.9279C29.6528 25.8305 29.5935 25.7422 29.5188 25.6677L24.2681 20.0983C24.2157 20.0546 24.15 20.0307 24.0818 20.0307C24.0138 20.0307 23.9478 20.0546 23.8957 20.0983C23.8433 20.1418 23.8082 20.2024 23.7959 20.2694C23.7837 20.3364 23.7953 20.4053 23.8289 20.4646C25.8682 24.1549 24.1146 29.4556 21.1902 32.3804L21.1748 32.3958C20.7712 32.7951 20.2263 33.0189 19.6586 33.0187C19.0908 33.0185 18.5461 32.7943 18.1427 32.3948L18.1285 32.3804C15.2031 29.4556 13.4504 24.1555 15.49 20.4654C15.5235 20.4061 15.5352 20.3372 15.523 20.2702C15.5108 20.2032 15.4755 20.1426 15.4233 20.0991C15.371 20.0554 15.3051 20.0315 15.2371 20.0315C15.169 20.0315 15.1031 20.0554 15.0508 20.0991L9.79905 25.6679Z" fill="#52525B"/>
<path d="M72.6308 13.0261H77.6948L72.4421 30.577H66.6547L64.2013 20.1974L61.7165 30.577H55.9291L50.6764 13.0261H56.0549L58.7913 25.3558L61.4963 13.0261H67.1894L69.8944 25.3558L72.6308 13.0261Z" fill="#52525B"/>
<path d="M90.8489 25.0098C91.6248 24.2549 92.0127 23.1855 92.0127 21.8015C92.0127 20.4176 91.6248 19.3587 90.8489 18.6247C90.0731 17.8699 89.1819 17.4924 88.1754 17.4924C87.1689 17.4924 86.2777 17.8699 85.5019 18.6247C84.726 19.3796 84.3381 20.449 84.3381 21.833C84.3381 23.2169 84.726 24.2863 85.5019 25.0412C86.2777 25.7751 87.1689 26.1421 88.1754 26.1421C89.1819 26.1421 90.0731 25.7646 90.8489 25.0098ZM81.1927 28.2809C79.6411 26.6034 78.8652 24.4541 78.8652 21.833C78.8652 19.2119 79.6411 17.0626 81.1927 15.3851C82.7444 13.6866 84.6316 12.8373 86.8543 12.8373C89.098 12.8373 90.8175 13.6656 92.0127 15.3221V13.0261H97.3912V30.577H92.0127V28.0293C90.7126 29.8745 88.9722 30.7972 86.7914 30.7972C84.6107 30.7972 82.7444 29.9584 81.1927 28.2809Z" fill="#52525B"/>
<path d="M99.8836 13.0261H105.608L109.603 26.0792L113.597 13.0261H119.322L113.094 30.577H106.111L99.8836 13.0261Z" fill="#52525B"/>
<path d="M129.26 30.7972C126.702 30.7972 124.605 29.9794 122.97 28.3438C121.334 26.6873 120.516 24.496 120.516 21.7701C120.516 19.0441 121.324 16.8738 122.938 15.2592C124.574 13.6446 126.681 12.8373 129.26 12.8373C131.839 12.8373 133.978 13.6341 135.677 15.2278C137.375 16.8214 138.225 19.0336 138.225 21.8644C138.225 22.4725 138.183 23.0387 138.099 23.5629H126.021C126.125 24.3388 126.471 24.9783 127.059 25.4816C127.646 25.9639 128.275 26.205 128.946 26.205C129.638 26.205 130.151 26.1421 130.487 26.0163C130.822 25.8695 131.064 25.7332 131.21 25.6074C131.378 25.4606 131.588 25.2299 131.839 24.9154H137.658C137.155 26.6768 136.149 28.1027 134.639 29.1931C133.129 30.2625 131.336 30.7972 129.26 30.7972ZM132.626 20.1974C132.542 19.3796 132.185 18.7191 131.556 18.2159C130.927 17.6916 130.183 17.4295 129.323 17.4295C128.463 17.4295 127.74 17.6916 127.153 18.2159C126.566 18.7191 126.199 19.3796 126.052 20.1974H132.626Z" fill="#52525B"/>
<path d="M147.058 13.0261V16.2972C148.316 13.9906 149.993 12.8373 152.09 12.8373V18.3102H150.769C149.532 18.3102 148.599 18.6038 147.97 19.1909C147.362 19.778 147.058 20.8055 147.058 22.2733V30.577H141.679V13.0261H147.058Z" fill="#52525B"/>
<path d="M159.917 11.0445C159.309 11.6526 158.564 11.9566 157.684 11.9566C156.803 11.9566 156.058 11.6526 155.45 11.0445C154.842 10.4364 154.538 9.692 154.538 8.81131C154.538 7.90965 154.842 7.15477 155.45 6.54667C156.058 5.93857 156.803 5.63452 157.684 5.63452C158.564 5.63452 159.309 5.93857 159.917 6.54667C160.525 7.15477 160.829 7.90965 160.829 8.81131C160.829 9.692 160.525 10.4364 159.917 11.0445ZM155.01 30.577V13.0261H160.389V30.577H155.01Z" fill="#52525B"/>
<path d="M175.652 25.0727C176.365 24.3178 176.722 23.2274 176.722 21.8015C176.722 20.3756 176.355 19.2957 175.621 18.5618C174.887 17.807 174.017 17.4295 173.01 17.4295C172.004 17.4295 171.134 17.807 170.4 18.5618C169.687 19.2957 169.33 20.3756 169.33 21.8015C169.33 23.2274 169.697 24.3178 170.431 25.0727C171.186 25.8276 172.067 26.205 173.073 26.205C174.08 26.205 174.94 25.8276 175.652 25.0727ZM166.5 28.3124C164.738 26.6558 163.857 24.4751 163.857 21.7701C163.857 19.0651 164.738 16.9053 166.5 15.2907C168.261 13.6551 170.442 12.8373 173.042 12.8373C175.642 12.8373 177.812 13.6551 179.553 15.2907C181.314 16.9053 182.195 19.0651 182.195 21.7701C182.195 24.4751 181.325 26.6558 179.584 28.3124C177.844 29.9689 175.673 30.7972 173.073 30.7972C170.473 30.7972 168.282 29.9689 166.5 28.3124Z" fill="#52525B"/>
</svg>
