<svg width="102" height="25" viewBox="0 0 102 25" fill="none" xmlns="http://www.w3.org/2000/svg">
<path d="M10.87 24L6.25 15.84H4.27V24H0.0700002V3.06H7.93C9.55 3.06 10.93 3.35 12.07 3.93C13.21 4.49 14.06 5.26 14.62 6.24C15.2 7.2 15.49 8.28 15.49 9.48C15.49 10.86 15.09 12.11 14.29 13.23C13.49 14.33 12.3 15.09 10.72 15.51L15.73 24H10.87ZM4.27 12.69H7.78C8.92 12.69 9.77 12.42 10.33 11.88C10.89 11.32 11.17 10.55 11.17 9.57C11.17 8.61 10.89 7.87 10.33 7.35C9.77 6.81 8.92 6.54 7.78 6.54H4.27V12.69ZM34.7388 15.33C34.7388 15.93 34.6988 16.47 34.6188 16.95H22.4688C22.5688 18.15 22.9888 19.09 23.7288 19.77C24.4688 20.45 25.3788 20.79 26.4588 20.79C28.0188 20.79 29.1288 20.12 29.7888 18.78H34.3188C33.8388 20.38 32.9188 21.7 31.5588 22.74C30.1988 23.76 28.5288 24.27 26.5488 24.27C24.9488 24.27 23.5088 23.92 22.2288 23.22C20.9688 22.5 19.9788 21.49 19.2588 20.19C18.5588 18.89 18.2087 17.39 18.2087 15.69C18.2087 13.97 18.5588 12.46 19.2588 11.16C19.9588 9.86 20.9388 8.86 22.1988 8.16C23.4588 7.46 24.9088 7.11 26.5488 7.11C28.1288 7.11 29.5388 7.45 30.7788 8.13C32.0388 8.81 33.0088 9.78 33.6888 11.04C34.3888 12.28 34.7388 13.71 34.7388 15.33ZM30.3888 14.13C30.3688 13.05 29.9788 12.19 29.2188 11.55C28.4588 10.89 27.5288 10.56 26.4288 10.56C25.3888 10.56 24.5088 10.88 23.7888 11.52C23.0888 12.14 22.6588 13.01 22.4988 14.13H30.3888ZM47.0144 7.14C48.9944 7.14 50.5944 7.77 51.8144 9.03C53.0344 10.27 53.6444 12.01 53.6444 14.25V24H49.4444V14.82C49.4444 13.5 49.1144 12.49 48.4544 11.79C47.7944 11.07 46.8944 10.71 45.7544 10.71C44.5944 10.71 43.6744 11.07 42.9944 11.79C42.3344 12.49 42.0044 13.5 42.0044 14.82V24H37.8044V7.38H42.0044V9.45C42.5644 8.73 43.2744 8.17 44.1344 7.77C45.0144 7.35 45.9744 7.14 47.0144 7.14ZM62.5284 10.83V18.87C62.5284 19.43 62.6584 19.84 62.9184 20.1C63.1984 20.34 63.6584 20.46 64.2984 20.46H66.2484V24H63.6084C60.0684 24 58.2984 22.28 58.2984 18.84V10.83H56.3184V7.38H58.2984V3.27H62.5284V7.38H66.2484V10.83H62.5284ZM71.1292 24.21C70.3692 24.21 69.7392 23.98 69.2392 23.52C68.7592 23.04 68.5192 22.45 68.5192 21.75C68.5192 21.05 68.7592 20.47 69.2392 20.01C69.7392 19.53 70.3692 19.29 71.1292 19.29C71.8692 19.29 72.4792 19.53 72.9592 20.01C73.4392 20.47 73.6792 21.05 73.6792 21.75C73.6792 22.45 73.4392 23.04 72.9592 23.52C72.4792 23.98 71.8692 24.21 71.1292 24.21ZM79.1922 5.4C78.4522 5.4 77.8322 5.17 77.3322 4.71C76.8522 4.23 76.6122 3.64 76.6122 2.94C76.6122 2.24 76.8522 1.66 77.3322 1.2C77.8322 0.719999 78.4522 0.479999 79.1922 0.479999C79.9322 0.479999 80.5422 0.719999 81.0222 1.2C81.5222 1.66 81.7722 2.24 81.7722 2.94C81.7722 3.64 81.5222 4.23 81.0222 4.71C80.5422 5.17 79.9322 5.4 79.1922 5.4ZM81.2622 7.38V24H77.0622V7.38H81.2622ZM92.7918 24.27C91.1918 24.27 89.7518 23.92 88.4718 23.22C87.1918 22.5 86.1818 21.49 85.4418 20.19C84.7218 18.89 84.3618 17.39 84.3618 15.69C84.3618 13.99 84.7318 12.49 85.4718 11.19C86.2318 9.89 87.2618 8.89 88.5618 8.19C89.8618 7.47 91.3118 7.11 92.9118 7.11C94.5118 7.11 95.9618 7.47 97.2618 8.19C98.5618 8.89 99.5818 9.89 100.322 11.19C101.082 12.49 101.462 13.99 101.462 15.69C101.462 17.39 101.072 18.89 100.292 20.19C99.5318 21.49 98.4918 22.5 97.1718 23.22C95.8718 23.92 94.4118 24.27 92.7918 24.27ZM92.7918 20.61C93.5518 20.61 94.2618 20.43 94.9218 20.07C95.6018 19.69 96.1418 19.13 96.5418 18.39C96.9418 17.65 97.1418 16.75 97.1418 15.69C97.1418 14.11 96.7218 12.9 95.8818 12.06C95.0618 11.2 94.0518 10.77 92.8518 10.77C91.6518 10.77 90.6418 11.2 89.8218 12.06C89.0218 12.9 88.6218 14.11 88.6218 15.69C88.6218 17.27 89.0118 18.49 89.7918 19.35C90.5918 20.19 91.5918 20.61 92.7918 20.61Z" fill="#212121"/>
</svg>
